<svg width="191" height="34" viewBox="0 0 191 34" fill="none" xmlns="http://www.w3.org/2000/svg">
<path d="M0 3C0 1.34315 1.34315 0 3 0H32C33.6569 0 35 1.34315 35 3V31C35 32.6569 33.6569 34 32 34H3C1.34315 34 0 32.6569 0 31V3Z" fill="#2FCCC0"/>
<path d="M17.051 5.37825C17.2987 4.87392 17.7026 4.87392 17.9493 5.37825L21.0654 11.7423C21.313 12.2467 21.9667 12.7265 22.5189 12.8063L29.488 13.8292C30.0401 13.91 30.166 14.2978 29.7661 14.6906L24.7235 19.6439C24.3236 20.0367 24.0739 20.8122 24.1683 21.3666L25.3579 28.3618C25.4523 28.9163 25.1244 29.1557 24.6311 28.8938L18.3979 25.5896C17.9036 25.3277 17.0947 25.3277 16.6013 25.5896L10.3682 28.8917C9.87385 29.1536 9.54699 28.9142 9.64139 28.3598L10.832 21.3645C10.9264 20.8101 10.6767 20.0346 10.2768 19.6418L5.23422 14.6885C4.83429 14.2957 4.95915 13.909 5.51233 13.8271L12.4814 12.8042C13.0336 12.7233 13.6883 12.2436 13.9349 11.7402L17.051 5.37825Z" fill="#FFD06D"/>
<path d="M39 3C39 1.34315 40.3431 0 42 0H71C72.6569 0 74 1.34315 74 3V31C74 32.6569 72.6569 34 71 34H42C40.3431 34 39 32.6569 39 31V3Z" fill="#2FCCC0"/>
<path d="M56.051 5.37825C56.2987 4.87392 56.7026 4.87392 56.9493 5.37825L60.0654 11.7423C60.313 12.2467 60.9667 12.7265 61.5189 12.8063L68.488 13.8292C69.0401 13.91 69.166 14.2978 68.7661 14.6906L63.7235 19.6439C63.3236 20.0367 63.0739 20.8122 63.1683 21.3666L64.3579 28.3618C64.4523 28.9163 64.1244 29.1557 63.6311 28.8938L57.3979 25.5896C56.9036 25.3277 56.0947 25.3277 55.6013 25.5896L49.3682 28.8917C48.8738 29.1536 48.547 28.9142 48.6414 28.3598L49.832 21.3645C49.9264 20.8101 49.6767 20.0346 49.2768 19.6418L44.2342 14.6885C43.8343 14.2957 43.9591 13.909 44.5123 13.8271L51.4814 12.8042C52.0336 12.7233 52.6883 12.2436 52.9349 11.7402L56.051 5.37825Z" fill="#FFD06D"/>
<path d="M78 3C78 1.34315 79.3431 0 81 0H110C111.657 0 113 1.34315 113 3V31C113 32.6569 111.657 34 110 34H81C79.3431 34 78 32.6569 78 31V3Z" fill="#2FCCC0"/>
<path d="M95.051 5.37825C95.2987 4.87392 95.7026 4.87392 95.9493 5.37825L99.0654 11.7423C99.313 12.2467 99.9667 12.7265 100.519 12.8063L107.488 13.8292C108.04 13.91 108.166 14.2978 107.766 14.6906L102.723 19.6439C102.324 20.0367 102.074 20.8122 102.168 21.3666L103.358 28.3618C103.452 28.9163 103.124 29.1557 102.631 28.8938L96.3979 25.5896C95.9036 25.3277 95.0947 25.3277 94.6013 25.5896L88.3682 28.8917C87.8738 29.1536 87.547 28.9142 87.6414 28.3598L88.832 21.3645C88.9264 20.8101 88.6767 20.0346 88.2768 19.6418L83.2342 14.6885C82.8343 14.2957 82.9591 13.909 83.5123 13.8271L90.4814 12.8042C91.0336 12.7233 91.6883 12.2436 91.9349 11.7402L95.051 5.37825Z" fill="#FFD06D"/>
<path d="M117 3C117 1.34315 118.343 0 120 0H149C150.657 0 152 1.34315 152 3V31C152 32.6569 150.657 34 149 34H120C118.343 34 117 32.6569 117 31V3Z" fill="#2FCCC0"/>
<path d="M134.051 5.37825C134.299 4.87392 134.703 4.87392 134.949 5.37825L138.065 11.7423C138.313 12.2467 138.967 12.7265 139.519 12.8063L146.488 13.8292C147.04 13.91 147.166 14.2978 146.766 14.6906L141.723 19.6439C141.324 20.0367 141.074 20.8122 141.168 21.3666L142.358 28.3618C142.452 28.9163 142.124 29.1557 141.631 28.8938L135.398 25.5896C134.904 25.3277 134.095 25.3277 133.601 25.5896L127.368 28.8917C126.874 29.1536 126.547 28.9142 126.641 28.3598L127.832 21.3645C127.926 20.8101 127.677 20.0346 127.277 19.6418L122.234 14.6885C121.834 14.2957 121.959 13.909 122.512 13.8271L129.481 12.8042C130.034 12.7233 130.688 12.2436 130.935 11.7402L134.051 5.37825Z" fill="#FFD06D"/>
<path d="M156 3C156 1.34315 157.343 0 159 0H188C189.657 0 191 1.34315 191 3V31C191 32.6569 189.657 34 188 34H159C157.343 34 156 32.6569 156 31V3Z" fill="#2FCCC0"/>
<path d="M173.051 5.37825C173.299 4.87392 173.703 4.87392 173.949 5.37825L177.065 11.7423C177.313 12.2467 177.967 12.7265 178.519 12.8063L185.488 13.8292C186.04 13.91 186.166 14.2978 185.766 14.6906L180.723 19.6439C180.324 20.0367 180.074 20.8122 180.168 21.3666L181.358 28.3618C181.452 28.9163 181.124 29.1557 180.631 28.8938L174.398 25.5896C173.904 25.3277 173.095 25.3277 172.601 25.5896L166.368 28.8917C165.874 29.1536 165.547 28.9142 165.641 28.3598L166.832 21.3645C166.926 20.8101 166.677 20.0346 166.277 19.6418L161.234 14.6885C160.834 14.2957 160.959 13.909 161.512 13.8271L168.481 12.8042C169.034 12.7233 169.688 12.2436 169.935 11.7402L173.051 5.37825Z" fill="#93ECE5"/>
<path fill-rule="evenodd" clip-rule="evenodd" d="M173.5 5C173.337 5.00027 173.175 5.12636 173.051 5.37825L169.935 11.7402C169.688 12.2436 169.034 12.7233 168.481 12.8042L161.512 13.8271C160.959 13.909 160.834 14.2957 161.234 14.6885L166.277 19.6418C166.677 20.0346 166.926 20.8101 166.832 21.3645L165.641 28.3598C165.547 28.9142 165.874 29.1536 166.368 28.8917L172.601 25.5896C172.848 25.4585 173.174 25.3931 173.5 25.3932V5Z" fill="#FFD06D"/>
</svg>
