<?xml version="1.0" encoding="utf-8"?>
<!-- Generator: Adobe Illustrator 24.0.3, SVG Export Plug-In . SVG Version: 6.00 Build 0)  -->
<svg version="1.1" id="Layer_1" xmlns="http://www.w3.org/2000/svg" xmlns:xlink="http://www.w3.org/1999/xlink" x="0px" y="0px"
	 viewBox="0 0 1123 705" style="enable-background:new 0 0 1123 705;" xml:space="preserve">
<style type="text/css">
	.st0{enable-background:new    ;}
	.st1{fill:#012434;}
</style>
<g class="st0">
	<path class="st1" d="M1107,1v17c-46,0-112,24-204,239L730,705h-17L534,273L374,705h-17L106,99C74,18,40,18,14,18V1h319v17
		c-88,0-45,116-45,116l144,365l93-251L468,99c-31-81-66-81-92-81V1h319v17c-90,0-45,116-45,116l142,369l95-251c0,0,95-234-75-234V1
		H1107z"/>
</g>
</svg>
